<svg xmlns="http://www.w3.org/2000/svg" xmlns:xlink="http://www.w3.org/1999/xlink" width="420" zoomAndPan="magnify" viewBox="0 0 315 74.999997" height="100" preserveAspectRatio="xMidYMid meet" version="1.0"><defs><g/></defs><g fill="#777777" fill-opacity="1"><g transform="translate(-3.807513, 36.575)"><g><path d="M 4.3125 0 L 4.3125 -34.265625 L 11.578125 -34.265625 L 11.578125 -6 L 25.484375 -6 L 25.484375 0 Z M 4.3125 0 "/></g></g><g transform="translate(23.309673, 36.575)"><g><path d="M 14.484375 -26.75 C 18.003906 -26.75 20.703125 -25.984375 22.578125 -24.453125 C 24.453125 -22.921875 25.390625 -20.59375 25.390625 -17.46875 L 25.390625 0 L 20.390625 0 L 19.015625 -3.5625 L 18.828125 -3.5625 C 18.078125 -2.625 17.3125 -1.859375 16.53125 -1.265625 C 15.75 -0.671875 14.847656 -0.234375 13.828125 0.046875 C 12.816406 0.328125 11.582031 0.46875 10.125 0.46875 C 8.582031 0.46875 7.195312 0.171875 5.96875 -0.421875 C 4.738281 -1.015625 3.769531 -1.925781 3.0625 -3.15625 C 2.363281 -4.382812 2.015625 -5.941406 2.015625 -7.828125 C 2.015625 -10.609375 2.988281 -12.660156 4.9375 -13.984375 C 6.894531 -15.304688 9.828125 -16.035156 13.734375 -16.171875 L 18.28125 -16.3125 L 18.28125 -17.46875 C 18.28125 -18.84375 17.921875 -19.847656 17.203125 -20.484375 C 16.484375 -21.128906 15.484375 -21.453125 14.203125 -21.453125 C 12.941406 -21.453125 11.703125 -21.269531 10.484375 -20.90625 C 9.265625 -20.550781 8.046875 -20.097656 6.828125 -19.546875 L 4.453125 -24.375 C 5.847656 -25.113281 7.40625 -25.691406 9.125 -26.109375 C 10.851562 -26.535156 12.640625 -26.75 14.484375 -26.75 Z M 18.28125 -12.140625 L 15.515625 -12.046875 C 13.203125 -11.984375 11.597656 -11.566406 10.703125 -10.796875 C 9.804688 -10.035156 9.359375 -9.03125 9.359375 -7.78125 C 9.359375 -6.6875 9.675781 -5.910156 10.3125 -5.453125 C 10.957031 -4.992188 11.796875 -4.765625 12.828125 -4.765625 C 14.359375 -4.765625 15.648438 -5.21875 16.703125 -6.125 C 17.753906 -7.03125 18.28125 -8.316406 18.28125 -9.984375 Z M 18.28125 -12.140625 "/></g></g><g transform="translate(52.301858, 36.575)"><g><path d="M 12.046875 0.46875 C 9.128906 0.46875 6.75 -0.675781 4.90625 -2.96875 C 3.070312 -5.257812 2.15625 -8.625 2.15625 -13.0625 C 2.15625 -17.539062 3.082031 -20.929688 4.9375 -23.234375 C 6.800781 -25.546875 9.234375 -26.703125 12.234375 -26.703125 C 13.484375 -26.703125 14.582031 -26.53125 15.53125 -26.1875 C 16.488281 -25.84375 17.316406 -25.378906 18.015625 -24.796875 C 18.710938 -24.222656 19.300781 -23.578125 19.78125 -22.859375 L 20.015625 -22.859375 C 19.921875 -23.359375 19.804688 -24.09375 19.671875 -25.0625 C 19.546875 -26.039062 19.484375 -27.046875 19.484375 -28.078125 L 19.484375 -36.46875 L 26.65625 -36.46875 L 26.65625 0 L 21.171875 0 L 19.78125 -3.40625 L 19.484375 -3.40625 C 19.023438 -2.6875 18.457031 -2.03125 17.78125 -1.4375 C 17.101562 -0.851562 16.296875 -0.390625 15.359375 -0.046875 C 14.421875 0.296875 13.316406 0.46875 12.046875 0.46875 Z M 14.5625 -5.234375 C 16.507812 -5.234375 17.882812 -5.8125 18.6875 -6.96875 C 19.5 -8.132812 19.925781 -9.890625 19.96875 -12.234375 L 19.96875 -13.015625 C 19.96875 -15.554688 19.578125 -17.503906 18.796875 -18.859375 C 18.015625 -20.210938 16.5625 -20.890625 14.4375 -20.890625 C 12.863281 -20.890625 11.628906 -20.207031 10.734375 -18.84375 C 9.847656 -17.488281 9.40625 -15.53125 9.40625 -12.96875 C 9.40625 -10.40625 9.851562 -8.472656 10.75 -7.171875 C 11.644531 -5.878906 12.914062 -5.234375 14.5625 -5.234375 Z M 14.5625 -5.234375 "/></g></g><g transform="translate(82.676856, 36.575)"><g><path d="M 14.5625 -26.703125 C 16.976562 -26.703125 19.0625 -26.234375 20.8125 -25.296875 C 22.5625 -24.367188 23.910156 -23.019531 24.859375 -21.25 C 25.816406 -19.488281 26.296875 -17.335938 26.296875 -14.796875 L 26.296875 -11.328125 L 9.40625 -11.328125 C 9.476562 -9.304688 10.082031 -7.722656 11.21875 -6.578125 C 12.351562 -5.429688 13.925781 -4.859375 15.9375 -4.859375 C 17.613281 -4.859375 19.144531 -5.03125 20.53125 -5.375 C 21.925781 -5.71875 23.359375 -6.234375 24.828125 -6.921875 L 24.828125 -1.390625 C 23.523438 -0.742188 22.164062 -0.273438 20.75 0.015625 C 19.34375 0.316406 17.628906 0.46875 15.609375 0.46875 C 12.984375 0.46875 10.660156 -0.015625 8.640625 -0.984375 C 6.617188 -1.953125 5.03125 -3.425781 3.875 -5.40625 C 2.726562 -7.394531 2.15625 -9.898438 2.15625 -12.921875 C 2.15625 -15.984375 2.675781 -18.53125 3.71875 -20.5625 C 4.757812 -22.601562 6.207031 -24.132812 8.0625 -25.15625 C 9.925781 -26.1875 12.09375 -26.703125 14.5625 -26.703125 Z M 14.609375 -21.609375 C 13.210938 -21.609375 12.054688 -21.160156 11.140625 -20.265625 C 10.234375 -19.378906 9.707031 -17.984375 9.5625 -16.078125 L 19.59375 -16.078125 C 19.582031 -17.140625 19.390625 -18.082031 19.015625 -18.90625 C 18.648438 -19.738281 18.101562 -20.394531 17.375 -20.875 C 16.65625 -21.363281 15.734375 -21.609375 14.609375 -21.609375 Z M 14.609375 -21.609375 "/></g></g><g transform="translate(111.036228, 36.575)"><g><path d="M 18.640625 -26.703125 C 21.429688 -26.703125 23.675781 -25.9375 25.375 -24.40625 C 27.082031 -22.882812 27.9375 -20.445312 27.9375 -17.09375 L 27.9375 0 L 20.796875 0 L 20.796875 -15.3125 C 20.796875 -17.1875 20.453125 -18.597656 19.765625 -19.546875 C 19.085938 -20.503906 18.023438 -20.984375 16.578125 -20.984375 C 14.390625 -20.984375 12.894531 -20.238281 12.09375 -18.75 C 11.300781 -17.269531 10.90625 -15.128906 10.90625 -12.328125 L 10.90625 0 L 3.75 0 L 3.75 -26.203125 L 9.21875 -26.203125 L 10.171875 -22.859375 L 10.578125 -22.859375 C 11.140625 -23.765625 11.835938 -24.5 12.671875 -25.0625 C 13.503906 -25.625 14.429688 -26.035156 15.453125 -26.296875 C 16.484375 -26.566406 17.546875 -26.703125 18.640625 -26.703125 Z M 18.640625 -26.703125 "/></g></g></g><g fill="#d92a2e" fill-opacity="1"><g transform="translate(142.5831, 36.575)"><g><path d="M 12.046875 0.46875 C 9.128906 0.46875 6.75 -0.675781 4.90625 -2.96875 C 3.070312 -5.257812 2.15625 -8.625 2.15625 -13.0625 C 2.15625 -17.539062 3.082031 -20.929688 4.9375 -23.234375 C 6.800781 -25.546875 9.234375 -26.703125 12.234375 -26.703125 C 13.484375 -26.703125 14.582031 -26.53125 15.53125 -26.1875 C 16.488281 -25.84375 17.316406 -25.378906 18.015625 -24.796875 C 18.710938 -24.222656 19.300781 -23.578125 19.78125 -22.859375 L 20.015625 -22.859375 C 19.921875 -23.359375 19.804688 -24.09375 19.671875 -25.0625 C 19.546875 -26.039062 19.484375 -27.046875 19.484375 -28.078125 L 19.484375 -36.46875 L 26.65625 -36.46875 L 26.65625 0 L 21.171875 0 L 19.78125 -3.40625 L 19.484375 -3.40625 C 19.023438 -2.6875 18.457031 -2.03125 17.78125 -1.4375 C 17.101562 -0.851562 16.296875 -0.390625 15.359375 -0.046875 C 14.421875 0.296875 13.316406 0.46875 12.046875 0.46875 Z M 14.5625 -5.234375 C 16.507812 -5.234375 17.882812 -5.8125 18.6875 -6.96875 C 19.5 -8.132812 19.925781 -9.890625 19.96875 -12.234375 L 19.96875 -13.015625 C 19.96875 -15.554688 19.578125 -17.503906 18.796875 -18.859375 C 18.015625 -20.210938 16.5625 -20.890625 14.4375 -20.890625 C 12.863281 -20.890625 11.628906 -20.207031 10.734375 -18.84375 C 9.847656 -17.488281 9.40625 -15.53125 9.40625 -12.96875 C 9.40625 -10.40625 9.851562 -8.472656 10.75 -7.171875 C 11.644531 -5.878906 12.914062 -5.234375 14.5625 -5.234375 Z M 14.5625 -5.234375 "/></g></g><g transform="translate(172.958098, 36.575)"><g><path d="M 10.90625 -26.203125 L 10.90625 0 L 3.75 0 L 3.75 -26.203125 Z M 7.34375 -36.46875 C 8.40625 -36.46875 9.316406 -36.222656 10.078125 -35.734375 C 10.847656 -35.242188 11.234375 -34.328125 11.234375 -32.984375 C 11.234375 -31.648438 10.847656 -30.726562 10.078125 -30.21875 C 9.316406 -29.71875 8.40625 -29.46875 7.34375 -29.46875 C 6.257812 -29.46875 5.335938 -29.71875 4.578125 -30.21875 C 3.828125 -30.726562 3.453125 -31.648438 3.453125 -32.984375 C 3.453125 -34.328125 3.828125 -35.242188 4.578125 -35.734375 C 5.335938 -36.222656 6.257812 -36.46875 7.34375 -36.46875 Z M 7.34375 -36.46875 "/></g></g><g transform="translate(187.606534, 36.575)"><g><path d="M 18.375 -26.703125 C 18.738281 -26.703125 19.15625 -26.679688 19.625 -26.640625 C 20.101562 -26.597656 20.492188 -26.546875 20.796875 -26.484375 L 20.25 -19.78125 C 20.019531 -19.863281 19.6875 -19.921875 19.25 -19.953125 C 18.820312 -19.992188 18.453125 -20.015625 18.140625 -20.015625 C 17.222656 -20.015625 16.328125 -19.894531 15.453125 -19.65625 C 14.585938 -19.425781 13.8125 -19.050781 13.125 -18.53125 C 12.4375 -18.007812 11.894531 -17.320312 11.5 -16.46875 C 11.101562 -15.613281 10.90625 -14.570312 10.90625 -13.34375 L 10.90625 0 L 3.75 0 L 3.75 -26.203125 L 9.171875 -26.203125 L 10.21875 -21.796875 L 10.578125 -21.796875 C 11.085938 -22.691406 11.726562 -23.507812 12.5 -24.25 C 13.28125 -24.988281 14.164062 -25.582031 15.15625 -26.03125 C 16.144531 -26.476562 17.21875 -26.703125 18.375 -26.703125 Z M 18.375 -26.703125 "/></g></g><g transform="translate(209.403407, 36.575)"><g><path d="M 14.5625 -26.703125 C 16.976562 -26.703125 19.0625 -26.234375 20.8125 -25.296875 C 22.5625 -24.367188 23.910156 -23.019531 24.859375 -21.25 C 25.816406 -19.488281 26.296875 -17.335938 26.296875 -14.796875 L 26.296875 -11.328125 L 9.40625 -11.328125 C 9.476562 -9.304688 10.082031 -7.722656 11.21875 -6.578125 C 12.351562 -5.429688 13.925781 -4.859375 15.9375 -4.859375 C 17.613281 -4.859375 19.144531 -5.03125 20.53125 -5.375 C 21.925781 -5.71875 23.359375 -6.234375 24.828125 -6.921875 L 24.828125 -1.390625 C 23.523438 -0.742188 22.164062 -0.273438 20.75 0.015625 C 19.34375 0.316406 17.628906 0.46875 15.609375 0.46875 C 12.984375 0.46875 10.660156 -0.015625 8.640625 -0.984375 C 6.617188 -1.953125 5.03125 -3.425781 3.875 -5.40625 C 2.726562 -7.394531 2.15625 -9.898438 2.15625 -12.921875 C 2.15625 -15.984375 2.675781 -18.53125 3.71875 -20.5625 C 4.757812 -22.601562 6.207031 -24.132812 8.0625 -25.15625 C 9.925781 -26.1875 12.09375 -26.703125 14.5625 -26.703125 Z M 14.609375 -21.609375 C 13.210938 -21.609375 12.054688 -21.160156 11.140625 -20.265625 C 10.234375 -19.378906 9.707031 -17.984375 9.5625 -16.078125 L 19.59375 -16.078125 C 19.582031 -17.140625 19.390625 -18.082031 19.015625 -18.90625 C 18.648438 -19.738281 18.101562 -20.394531 17.375 -20.875 C 16.65625 -21.363281 15.734375 -21.609375 14.609375 -21.609375 Z M 14.609375 -21.609375 "/></g></g><g transform="translate(237.76278, 36.575)"><g><path d="M 10.90625 -36.46875 L 10.90625 -20.15625 C 10.90625 -19.175781 10.863281 -18.191406 10.78125 -17.203125 C 10.707031 -16.222656 10.625 -15.238281 10.53125 -14.25 L 10.625 -14.25 C 11.101562 -14.9375 11.597656 -15.613281 12.109375 -16.28125 C 12.617188 -16.957031 13.160156 -17.609375 13.734375 -18.234375 L 21.078125 -26.203125 L 29.140625 -26.203125 L 18.734375 -14.84375 L 29.765625 0 L 21.515625 0 L 13.96875 -10.625 L 10.90625 -8.15625 L 10.90625 0 L 3.75 0 L 3.75 -36.46875 Z M 10.90625 -36.46875 "/></g></g><g transform="translate(267.528402, 36.575)"><g><path d="M 14.796875 -5.234375 C 15.578125 -5.234375 16.335938 -5.3125 17.078125 -5.46875 C 17.816406 -5.625 18.554688 -5.816406 19.296875 -6.046875 L 19.296875 -0.734375 C 18.523438 -0.390625 17.570312 -0.101562 16.4375 0.125 C 15.3125 0.351562 14.078125 0.46875 12.734375 0.46875 C 11.171875 0.46875 9.765625 0.210938 8.515625 -0.296875 C 7.273438 -0.804688 6.300781 -1.6875 5.59375 -2.9375 C 4.882812 -4.195312 4.53125 -5.953125 4.53125 -8.203125 L 4.53125 -20.84375 L 1.109375 -20.84375 L 1.109375 -23.859375 L 5.046875 -26.25 L 7.109375 -31.78125 L 11.671875 -31.78125 L 11.671875 -26.203125 L 19.015625 -26.203125 L 19.015625 -20.84375 L 11.671875 -20.84375 L 11.671875 -8.203125 C 11.671875 -7.203125 11.957031 -6.457031 12.53125 -5.96875 C 13.101562 -5.476562 13.859375 -5.234375 14.796875 -5.234375 Z M 14.796875 -5.234375 "/></g></g></g><g fill="#777777" fill-opacity="1"><g transform="translate(0.0000063, 70.549992)"><g><path d="M 8.640625 -16.421875 C 11.878906 -16.421875 13.5 -15.160156 13.5 -12.640625 C 13.5 -11.585938 13.171875 -10.695312 12.515625 -9.96875 C 11.867188 -9.25 10.953125 -8.78125 9.765625 -8.5625 L 9.765625 -8.453125 C 10.628906 -8.210938 11.289062 -7.796875 11.75 -7.203125 C 12.207031 -6.617188 12.4375 -5.914062 12.4375 -5.09375 C 12.4375 -3.5 11.867188 -2.25 10.734375 -1.34375 C 9.597656 -0.445312 8.078125 0 6.171875 0 L 0.96875 0 L 4.4375 -16.421875 Z M 4.875 -9.390625 L 7.65625 -9.390625 C 8.820312 -9.390625 9.753906 -9.660156 10.453125 -10.203125 C 11.148438 -10.753906 11.5 -11.5 11.5 -12.4375 C 11.5 -13.21875 11.25 -13.800781 10.75 -14.1875 C 10.25 -14.570312 9.46875 -14.765625 8.40625 -14.765625 L 6.03125 -14.765625 Z M 3.21875 -1.625 L 6.203125 -1.625 C 7.566406 -1.625 8.609375 -1.925781 9.328125 -2.53125 C 10.054688 -3.132812 10.421875 -3.988281 10.421875 -5.09375 C 10.421875 -5.957031 10.140625 -6.617188 9.578125 -7.078125 C 9.023438 -7.535156 8.222656 -7.765625 7.171875 -7.765625 L 4.53125 -7.765625 Z M 3.21875 -1.625 "/></g></g></g><g fill="#777777" fill-opacity="1"><g transform="translate(13.752656, 70.549992)"><g><path d="M 9.21875 0 L 0.96875 0 L 4.4375 -16.421875 L 12.6875 -16.421875 L 12.328125 -14.703125 L 5.96875 -14.703125 L 4.875 -9.4375 L 10.796875 -9.4375 L 10.46875 -7.734375 L 4.53125 -7.734375 L 3.25 -1.703125 L 9.59375 -1.703125 Z M 9.21875 0 "/></g></g></g><g fill="#777777" fill-opacity="1"><g transform="translate(25.506962, 70.549992)"><g><path d="M 9.8125 -14.96875 C 8.632812 -14.96875 7.582031 -14.585938 6.65625 -13.828125 C 5.726562 -13.078125 5.007812 -12.023438 4.5 -10.671875 C 3.988281 -9.328125 3.734375 -7.835938 3.734375 -6.203125 C 3.734375 -4.710938 4.097656 -3.550781 4.828125 -2.71875 C 5.566406 -1.882812 6.5625 -1.46875 7.8125 -1.46875 C 9 -1.46875 10.046875 -1.84375 10.953125 -2.59375 C 11.859375 -3.34375 12.554688 -4.390625 13.046875 -5.734375 C 13.546875 -7.085938 13.796875 -8.585938 13.796875 -10.234375 C 13.796875 -11.722656 13.441406 -12.882812 12.734375 -13.71875 C 12.035156 -14.550781 11.0625 -14.96875 9.8125 -14.96875 Z M 8.140625 0.203125 L 7.953125 0.21875 L 7.765625 0.21875 C 5.847656 0.21875 4.351562 -0.335938 3.28125 -1.453125 C 2.21875 -2.578125 1.6875 -4.148438 1.6875 -6.171875 C 1.6875 -8.140625 2.046875 -9.941406 2.765625 -11.578125 C 3.484375 -13.210938 4.46875 -14.46875 5.71875 -15.34375 C 6.976562 -16.226562 8.394531 -16.671875 9.96875 -16.671875 C 11.789062 -16.671875 13.222656 -16.09375 14.265625 -14.9375 C 15.316406 -13.789062 15.84375 -12.207031 15.84375 -10.1875 C 15.84375 -7.695312 15.320312 -5.539062 14.28125 -3.71875 C 13.238281 -1.894531 11.835938 -0.691406 10.078125 -0.109375 L 13.15625 3.90625 L 10.6875 3.90625 Z M 8.140625 0.203125 "/></g></g></g><g fill="#777777" fill-opacity="1"><g transform="translate(42.066275, 70.549992)"><g><path d="M 15.796875 -16.421875 L 13.5 -5.578125 C 13.082031 -3.597656 12.34375 -2.132812 11.28125 -1.1875 C 10.21875 -0.25 8.765625 0.21875 6.921875 0.21875 C 5.191406 0.21875 3.910156 -0.164062 3.078125 -0.9375 C 2.253906 -1.71875 1.84375 -2.835938 1.84375 -4.296875 C 1.84375 -4.910156 1.929688 -5.664062 2.109375 -6.5625 L 4.234375 -16.421875 L 6.140625 -16.421875 L 4 -6.40625 C 3.832031 -5.613281 3.75 -4.910156 3.75 -4.296875 C 3.75 -3.421875 4.019531 -2.726562 4.5625 -2.21875 C 5.113281 -1.71875 5.929688 -1.46875 7.015625 -1.46875 C 8.304688 -1.46875 9.304688 -1.796875 10.015625 -2.453125 C 10.734375 -3.109375 11.257812 -4.191406 11.59375 -5.703125 L 13.890625 -16.421875 Z M 15.796875 -16.421875 "/></g></g></g><g fill="#777777" fill-opacity="1"><g transform="translate(57.603963, 70.549992)"><g><path d="M 9.21875 0 L 0.96875 0 L 4.4375 -16.421875 L 12.6875 -16.421875 L 12.328125 -14.703125 L 5.96875 -14.703125 L 4.875 -9.4375 L 10.796875 -9.4375 L 10.46875 -7.734375 L 4.53125 -7.734375 L 3.25 -1.703125 L 9.59375 -1.703125 Z M 9.21875 0 "/></g></g></g><g fill="#777777" fill-opacity="1"><g transform="translate(69.358269, 70.549992)"><g><path d="M 7.59375 0 L 5.734375 -14.5625 L 5.640625 -14.5625 C 5.585938 -14.019531 5.476562 -13.273438 5.3125 -12.328125 C 5.15625 -11.390625 5.015625 -10.644531 4.890625 -10.09375 L 2.765625 0 L 0.9375 0 L 4.40625 -16.421875 L 7.15625 -16.421875 L 8.828125 -2.890625 L 8.921875 -2.890625 L 16.328125 -16.421875 L 19.3125 -16.421875 L 15.90625 0 L 13.953125 0 C 14.898438 -4.414062 15.625 -7.804688 16.125 -10.171875 C 16.625 -12.535156 16.976562 -14.003906 17.1875 -14.578125 L 17.109375 -14.578125 L 9.0625 0 Z M 7.59375 0 "/></g></g></g><g fill="#777777" fill-opacity="1"><g transform="translate(88.600753, 70.549992)"><g><path d="M 9.21875 0 L 0.96875 0 L 4.4375 -16.421875 L 12.6875 -16.421875 L 12.328125 -14.703125 L 5.96875 -14.703125 L 4.875 -9.4375 L 10.796875 -9.4375 L 10.46875 -7.734375 L 4.53125 -7.734375 L 3.25 -1.703125 L 9.59375 -1.703125 Z M 9.21875 0 "/></g></g></g><g fill="#777777" fill-opacity="1"><g transform="translate(100.355059, 70.549992)"><g><path d="M 4.328125 -6.828125 L 2.875 0 L 0.96875 0 L 4.4375 -16.421875 L 8.03125 -16.421875 C 11.363281 -16.421875 13.03125 -15.050781 13.03125 -12.3125 C 13.03125 -9.707031 11.65625 -8.023438 8.90625 -7.265625 L 11.59375 0 L 9.5 0 L 7.15625 -6.828125 Z M 5.96875 -14.75 C 5.207031 -11.050781 4.773438 -8.957031 4.671875 -8.46875 L 6.5625 -8.46875 C 8 -8.46875 9.109375 -8.785156 9.890625 -9.421875 C 10.671875 -10.054688 11.0625 -10.96875 11.0625 -12.15625 C 11.0625 -13.0625 10.804688 -13.71875 10.296875 -14.125 C 9.796875 -14.539062 8.976562 -14.75 7.84375 -14.75 Z M 5.96875 -14.75 "/></g></g></g><g fill="#2e2727" fill-opacity="1"><g transform="translate(113.425778, 70.549992)"><g/></g></g><g fill="#d92a2e" fill-opacity="1"><g transform="translate(119.390622, 70.549992)"><g><path d="M 13.015625 -12.1875 C 13.015625 -10.332031 12.398438 -8.910156 11.171875 -7.921875 C 9.941406 -6.941406 8.140625 -6.453125 5.765625 -6.453125 L 4.25 -6.453125 L 2.875 0 L 0.96875 0 L 4.4375 -16.421875 L 8.140625 -16.421875 C 9.742188 -16.421875 10.957031 -16.066406 11.78125 -15.359375 C 12.601562 -14.648438 13.015625 -13.59375 13.015625 -12.1875 Z M 4.609375 -8.09375 L 6.09375 -8.09375 C 7.71875 -8.09375 8.945312 -8.429688 9.78125 -9.109375 C 10.625 -9.796875 11.046875 -10.800781 11.046875 -12.125 C 11.046875 -13.050781 10.785156 -13.722656 10.265625 -14.140625 C 9.742188 -14.554688 8.941406 -14.765625 7.859375 -14.765625 L 6.03125 -14.765625 Z M 4.609375 -8.09375 "/></g></g></g><g fill="#d92a2e" fill-opacity="1"><g transform="translate(132.402313, 70.549992)"><g><path d="M 4.328125 -6.828125 L 2.875 0 L 0.96875 0 L 4.4375 -16.421875 L 8.03125 -16.421875 C 11.363281 -16.421875 13.03125 -15.050781 13.03125 -12.3125 C 13.03125 -9.707031 11.65625 -8.023438 8.90625 -7.265625 L 11.59375 0 L 9.5 0 L 7.15625 -6.828125 Z M 5.96875 -14.75 C 5.207031 -11.050781 4.773438 -8.957031 4.671875 -8.46875 L 6.5625 -8.46875 C 8 -8.46875 9.109375 -8.785156 9.890625 -9.421875 C 10.671875 -10.054688 11.0625 -10.96875 11.0625 -12.15625 C 11.0625 -13.0625 10.804688 -13.71875 10.296875 -14.125 C 9.796875 -14.539062 8.976562 -14.75 7.84375 -14.75 Z M 5.96875 -14.75 "/></g></g></g><g fill="#d92a2e" fill-opacity="1"><g transform="translate(145.481364, 70.549992)"><g><path d="M 9.21875 0 L 0.96875 0 L 4.4375 -16.421875 L 12.6875 -16.421875 L 12.328125 -14.703125 L 5.96875 -14.703125 L 4.875 -9.4375 L 10.796875 -9.4375 L 10.46875 -7.734375 L 4.53125 -7.734375 L 3.25 -1.703125 L 9.59375 -1.703125 Z M 9.21875 0 "/></g></g></g><g fill="#d92a2e" fill-opacity="1"><g transform="translate(157.23567, 70.549992)"><g><path d="M 0.96875 0 L 4.453125 -16.421875 L 6.34375 -16.421875 L 2.859375 0 Z M 0.96875 0 "/></g></g></g><g fill="#d92a2e" fill-opacity="1"><g transform="translate(163.511369, 70.549992)"><g><path d="M 10.25 -4.765625 C 10.25 -3.179688 9.722656 -1.953125 8.671875 -1.078125 C 7.617188 -0.210938 6.140625 0.21875 4.234375 0.21875 C 3.441406 0.21875 2.742188 0.164062 2.140625 0.0625 C 1.535156 -0.0390625 0.96875 -0.222656 0.4375 -0.484375 L 0.4375 -2.390625 C 1.644531 -1.765625 2.914062 -1.453125 4.25 -1.453125 C 5.46875 -1.453125 6.429688 -1.734375 7.140625 -2.296875 C 7.847656 -2.859375 8.203125 -3.632812 8.203125 -4.625 C 8.203125 -5.207031 8.003906 -5.722656 7.609375 -6.171875 C 7.222656 -6.617188 6.492188 -7.144531 5.421875 -7.75 C 4.296875 -8.382812 3.515625 -9.019531 3.078125 -9.65625 C 2.640625 -10.289062 2.421875 -11.046875 2.421875 -11.921875 C 2.421875 -13.316406 2.910156 -14.453125 3.890625 -15.328125 C 4.878906 -16.210938 6.179688 -16.65625 7.796875 -16.65625 C 8.535156 -16.65625 9.222656 -16.582031 9.859375 -16.4375 C 10.503906 -16.300781 11.179688 -16.0625 11.890625 -15.71875 L 11.15625 -14.03125 C 10.65625 -14.3125 10.097656 -14.535156 9.484375 -14.703125 C 8.867188 -14.867188 8.304688 -14.953125 7.796875 -14.953125 C 6.796875 -14.953125 5.988281 -14.691406 5.375 -14.171875 C 4.757812 -13.648438 4.453125 -12.941406 4.453125 -12.046875 C 4.453125 -11.640625 4.515625 -11.289062 4.640625 -11 C 4.773438 -10.71875 4.976562 -10.445312 5.25 -10.1875 C 5.53125 -9.9375 6.0625 -9.582031 6.84375 -9.125 C 7.945312 -8.46875 8.691406 -7.953125 9.078125 -7.578125 C 9.460938 -7.203125 9.753906 -6.785156 9.953125 -6.328125 C 10.148438 -5.878906 10.25 -5.359375 10.25 -4.765625 Z M 10.25 -4.765625 "/></g></g></g><g fill="#d92a2e" fill-opacity="1"><g transform="translate(175.052368, 70.549992)"><g><path d="M 5.375 -2.21875 C 5.832031 -3.289062 6.441406 -4.554688 7.203125 -6.015625 L 12.578125 -16.421875 L 14.71875 -16.421875 L 5.953125 0 L 3.9375 0 L 2.109375 -16.421875 L 4.015625 -16.421875 L 5.109375 -5.96875 C 5.253906 -4.507812 5.328125 -3.257812 5.328125 -2.21875 Z M 5.375 -2.21875 "/></g></g></g><g fill="#d92a2e" fill-opacity="1"><g transform="translate(187.648673, 70.549992)"><g><path d="M 9.21875 0 L 0.96875 0 L 4.4375 -16.421875 L 12.6875 -16.421875 L 12.328125 -14.703125 L 5.96875 -14.703125 L 4.875 -9.4375 L 10.796875 -9.4375 L 10.46875 -7.734375 L 4.53125 -7.734375 L 3.25 -1.703125 L 9.59375 -1.703125 Z M 9.21875 0 "/></g></g></g><g fill="#d92a2e" fill-opacity="1"><g transform="translate(199.402978, 70.549992)"><g><path d="M 4.328125 -6.828125 L 2.875 0 L 0.96875 0 L 4.4375 -16.421875 L 8.03125 -16.421875 C 11.363281 -16.421875 13.03125 -15.050781 13.03125 -12.3125 C 13.03125 -9.707031 11.65625 -8.023438 8.90625 -7.265625 L 11.59375 0 L 9.5 0 L 7.15625 -6.828125 Z M 5.96875 -14.75 C 5.207031 -11.050781 4.773438 -8.957031 4.671875 -8.46875 L 6.5625 -8.46875 C 8 -8.46875 9.109375 -8.785156 9.890625 -9.421875 C 10.671875 -10.054688 11.0625 -10.96875 11.0625 -12.15625 C 11.0625 -13.0625 10.804688 -13.71875 10.296875 -14.125 C 9.796875 -14.539062 8.976562 -14.75 7.84375 -14.75 Z M 5.96875 -14.75 "/></g></g></g><g fill="#d92a2e" fill-opacity="1"><g transform="translate(212.482029, 70.549992)"><g><path d="M 9.21875 -8.609375 L 14.375 -8.609375 L 12.640625 -0.625 C 11.023438 -0.0625 9.457031 0.21875 7.9375 0.21875 C 5.957031 0.21875 4.421875 -0.316406 3.328125 -1.390625 C 2.234375 -2.472656 1.6875 -3.988281 1.6875 -5.9375 C 1.6875 -7.945312 2.066406 -9.773438 2.828125 -11.421875 C 3.585938 -13.078125 4.640625 -14.363281 5.984375 -15.28125 C 7.328125 -16.195312 8.820312 -16.65625 10.46875 -16.65625 C 11.34375 -16.65625 12.160156 -16.578125 12.921875 -16.421875 C 13.691406 -16.273438 14.46875 -16.039062 15.25 -15.71875 L 14.515625 -14 C 13.929688 -14.257812 13.304688 -14.484375 12.640625 -14.671875 C 11.984375 -14.859375 11.257812 -14.953125 10.46875 -14.953125 C 9.195312 -14.953125 8.039062 -14.570312 7 -13.8125 C 5.96875 -13.050781 5.164062 -11.988281 4.59375 -10.625 C 4.019531 -9.257812 3.734375 -7.734375 3.734375 -6.046875 C 3.734375 -4.628906 4.113281 -3.507812 4.875 -2.6875 C 5.644531 -1.875 6.71875 -1.46875 8.09375 -1.46875 C 9.25 -1.46875 10.222656 -1.613281 11.015625 -1.90625 L 12.09375 -6.890625 L 8.84375 -6.890625 Z M 9.21875 -8.609375 "/></g></g></g><g fill="#d92a2e" fill-opacity="1"><g transform="translate(228.042171, 70.549992)"><g><path d="M 0.96875 0 L 4.4375 -16.421875 L 6.34375 -16.421875 L 3.25 -1.734375 L 9.59375 -1.734375 L 9.21875 0 Z M 0.96875 0 "/></g></g></g><g fill="#d92a2e" fill-opacity="1"><g transform="translate(238.943251, 70.549992)"><g><path d="M 9.21875 0 L 0.96875 0 L 4.4375 -16.421875 L 12.6875 -16.421875 L 12.328125 -14.703125 L 5.96875 -14.703125 L 4.875 -9.4375 L 10.796875 -9.4375 L 10.46875 -7.734375 L 4.53125 -7.734375 L 3.25 -1.703125 L 9.59375 -1.703125 Z M 9.21875 0 "/></g></g></g><g fill="#d92a2e" fill-opacity="1"><g transform="translate(250.697557, 70.549992)"><g><path d="M 0.96875 0 L 4.453125 -16.421875 L 6.34375 -16.421875 L 2.859375 0 Z M 0.96875 0 "/></g></g></g><g fill="#d92a2e" fill-opacity="1"><g transform="translate(256.973256, 70.549992)"><g><path d="M 10.578125 -14.953125 C 9.273438 -14.953125 8.109375 -14.585938 7.078125 -13.859375 C 6.046875 -13.128906 5.226562 -12.0625 4.625 -10.65625 C 4.03125 -9.257812 3.734375 -7.734375 3.734375 -6.078125 C 3.734375 -4.671875 4.097656 -3.550781 4.828125 -2.71875 C 5.554688 -1.882812 6.5625 -1.46875 7.84375 -1.46875 C 8.882812 -1.46875 10.085938 -1.679688 11.453125 -2.109375 L 11.453125 -0.4375 C 10.804688 -0.207031 10.191406 -0.0390625 9.609375 0.0625 C 9.023438 0.164062 8.320312 0.21875 7.5 0.21875 C 5.6875 0.21875 4.265625 -0.335938 3.234375 -1.453125 C 2.203125 -2.578125 1.6875 -4.101562 1.6875 -6.03125 C 1.6875 -7.988281 2.078125 -9.804688 2.859375 -11.484375 C 3.648438 -13.160156 4.710938 -14.441406 6.046875 -15.328125 C 7.378906 -16.210938 8.890625 -16.65625 10.578125 -16.65625 C 12.054688 -16.65625 13.359375 -16.351562 14.484375 -15.75 L 13.71875 -14.171875 C 12.675781 -14.691406 11.628906 -14.953125 10.578125 -14.953125 Z M 10.578125 -14.953125 "/></g></g></g><g fill="#d92a2e" fill-opacity="1"><g transform="translate(270.422787, 70.549992)"><g><path d="M 12.1875 0 L 10.3125 0 L 11.921875 -7.734375 L 4.5 -7.734375 L 2.875 0 L 0.96875 0 L 4.4375 -16.421875 L 6.34375 -16.421875 L 4.875 -9.4375 L 12.28125 -9.4375 L 13.78125 -16.421875 L 15.671875 -16.421875 Z M 12.1875 0 "/></g></g></g></svg>