<svg xmlns="http://www.w3.org/2000/svg" xmlns:xlink="http://www.w3.org/1999/xlink" width="1080" zoomAndPan="magnify" viewBox="0 0 810 809.999993" height="1080" preserveAspectRatio="xMidYMid meet" version="1.0"><path fill="#cccccc" d="M 425.535156 83.859375 C 377.003906 80.964844 330.078125 88.585938 285.871094 106.457031 C 281.636719 108.105469 278.964844 112.25 278.964844 116.972656 C 278.964844 118.933594 279.363281 120.714844 280.210938 122.320312 C 283.019531 127.625 289.214844 129.851562 294.695312 127.625 C 335.78125 110.957031 379.457031 103.914062 424.644531 106.722656 C 570.324219 115.902344 689.132812 232.304688 701.164062 377.496094 C 708.382812 464.75 677.191406 550.269531 615.601562 612.082031 C 553.96875 673.890625 468.496094 705.308594 381.28125 698.402344 C 240.503906 687.082031 124.058594 572.640625 110.375 432.265625 C 102.890625 354.722656 125.261719 278.785156 173.390625 218.355469 C 175.394531 215.816406 178.425781 214.257812 181.636719 214.078125 C 185.023438 213.898438 188.050781 215.101562 190.371094 217.421875 L 203.515625 230.566406 L 211.582031 162.875 L 143.84375 171.429688 L 157.882812 184.800781 C 162.027344 188.945312 162.339844 195.539062 158.59375 200.085938 C 106.457031 263.632812 81.007812 344.117188 86.980469 426.78125 C 98.210938 581.289062 223.035156 707.761719 377.359375 720.953125 C 468.941406 728.707031 559.449219 697.242188 625.628906 634.363281 C 691.761719 571.484375 727.949219 483.066406 724.828125 391.710938 C 719.304688 229.007812 587.839844 93.753906 425.535156 83.859375 " fill-opacity="1" fill-rule="nonzero"/><path fill="#cccccc" d="M 402.496094 254.855469 L 286.984375 288.5 L 405.570312 322.414062 L 524.15625 288.5 L 408.644531 254.855469 C 406.640625 254.273438 404.5 254.273438 402.496094 254.855469 " fill-opacity="1" fill-rule="nonzero"/><path fill="#cccccc" d="M 358.019531 409.492188 C 354.589844 409.492188 351.15625 408.957031 347.769531 407.976562 L 257.261719 381.058594 L 257.261719 520.101562 L 394.160156 559.140625 L 394.160156 381.105469 L 389.214844 390.6875 C 383.109375 402.449219 370.945312 409.449219 358.019531 409.492188 " fill-opacity="1" fill-rule="nonzero"/><path fill="#cccccc" d="M 575.492188 347.058594 C 576.785156 344.5625 577.054688 341.753906 576.25 339.125 L 559.050781 302.269531 L 422.105469 341.398438 L 442.203125 380.167969 C 444.832031 385.292969 451.113281 387.789062 456.863281 386.097656 L 568.183594 353.027344 C 571.394531 352.046875 574.023438 349.953125 575.492188 347.058594 " fill-opacity="1" fill-rule="nonzero"/><path fill="#cccccc" d="M 421.925781 390.6875 L 416.980469 381.105469 L 416.980469 559.183594 L 553.835938 520.101562 L 553.878906 381.058594 L 463.371094 407.976562 C 459.984375 408.957031 456.550781 409.449219 453.121094 409.449219 C 440.195312 409.449219 428.03125 402.449219 421.925781 390.6875 " fill-opacity="1" fill-rule="nonzero"/><path fill="#cccccc" d="M 234.890625 339.125 C 234.085938 341.753906 234.355469 344.5625 235.648438 347.058594 C 237.117188 349.953125 239.746094 352.046875 242.957031 353.027344 L 354.277344 386.097656 C 359.980469 387.832031 366.308594 385.25 368.9375 380.214844 L 389.035156 341.398438 L 252.089844 302.269531 L 234.890625 339.125 " fill-opacity="1" fill-rule="nonzero"/></svg>